<svg width="35" height="30" viewBox="0 0 35 30" fill="none" xmlns="http://www.w3.org/2000/svg">
<path d="M9.35269 3.48425L9.39295 3.57127H9.48884H33.8613C34.1933 3.57127 34.4534 3.70789 34.6538 3.9936C34.8536 4.2785 34.9008 4.5837 34.7954 4.92366C34.7952 4.9242 34.7951 4.92474 34.7949 4.92529L29.3042 21.1283L29.3039 21.1291C29.2431 21.312 29.1267 21.4668 28.9468 21.5942C28.7676 21.7211 28.5763 21.7827 28.3694 21.7827H12.8629C12.7177 21.7827 12.5854 21.7517 12.4636 21.6906C12.34 21.6287 12.2308 21.5404 12.1357 21.4238C12.0391 21.3054 11.9713 21.1844 11.9297 21.061L7.14442 3.38285C7.14439 3.38272 7.14436 3.3826 7.14433 3.38247C7.04619 3.01338 6.9198 2.72072 6.75779 2.51754C6.68315 2.42391 6.61306 2.34645 6.54778 2.28784C6.48495 2.23144 6.41526 2.18207 6.34085 2.16073C6.2424 2.13251 6.13864 2.11891 6.0303 2.11891H1.11273C0.947549 2.11891 0.786261 2.07775 0.627139 1.9926C0.473958 1.91063 0.357807 1.79413 0.276029 1.64028C0.191101 1.48051 0.15 1.31847 0.15 1.15246C0.15 0.851586 0.244931 0.614994 0.429295 0.430015C0.615903 0.242784 0.840636 0.149995 1.11273 0.149995H6.0303C6.25692 0.149995 6.48397 0.1784 6.7117 0.235524C6.93565 0.291699 7.2054 0.400275 7.52249 0.565239C7.81783 0.718891 8.10615 0.987398 8.38435 1.38283C8.66028 1.77504 8.8812 2.25152 9.04499 2.81499L9.04815 2.82583L9.05289 2.83609L9.35269 3.48425ZM27.5797 19.7778H27.6879L27.722 19.6752L32.3524 5.7736L32.4182 5.5762H32.2101H10.099H9.90442L9.95399 5.7644L13.6152 19.666L13.6447 19.7778H13.7603H27.5797ZM23.3965 25.1899C23.931 24.6536 24.5689 24.3877 25.3183 24.3877C26.0678 24.3877 26.7057 24.6536 27.2402 25.1899C27.7747 25.7262 28.0399 26.3665 28.0399 27.1188C28.0399 27.8712 27.7747 28.5115 27.2402 29.0478C26.7057 29.584 26.0678 29.85 25.3183 29.85C24.5689 29.85 23.931 29.584 23.3965 29.0478C22.862 28.5115 22.5968 27.8712 22.5968 27.1188C22.5968 26.3665 22.862 25.7262 23.3965 25.1899ZM13.6038 24.7627C14.0228 24.5127 14.4807 24.3877 14.9807 24.3877C15.1627 24.3877 15.3448 24.4048 15.5273 24.4391C15.7086 24.4732 15.8775 24.5242 16.0342 24.5916C16.1921 24.6595 16.3448 24.7445 16.4924 24.8471C16.6407 24.9501 16.7773 25.0643 16.9025 25.1899C17.0277 25.3155 17.1416 25.4526 17.2442 25.6014C17.3464 25.7495 17.4312 25.9028 17.499 26.0613C17.5662 26.2186 17.617 26.3881 17.651 26.5702C17.6852 26.7533 17.7023 26.9362 17.7023 27.1188C17.7023 27.8712 17.437 28.5115 16.9025 29.0478C16.368 29.584 15.7301 29.85 14.9807 29.85C14.2313 29.85 13.5934 29.584 13.0589 29.0478C12.5244 28.5115 12.2591 27.8712 12.2591 27.1188C12.2591 26.6155 12.3785 26.1616 12.6157 25.7536C12.8538 25.3442 13.1823 25.0141 13.6038 24.7627Z" fill="black" stroke="white" stroke-width="0.3"/>
</svg>
