<svg width="34" height="27" viewBox="0 0 34 27" fill="none" xmlns="http://www.w3.org/2000/svg">
<path d="M6.18161 26.8656V25.0786C6.18161 24.3934 5.77334 23.9468 5.07355 23.9468C4.72373 23.9468 4.34468 24.0659 4.08224 24.4531C3.87824 24.1255 3.58672 23.9468 3.14937 23.9468C2.85771 23.9468 2.56632 24.0361 2.33297 24.3637V24.0063H1.7207V26.8656H2.33297V25.287C2.33297 24.7808 2.59541 24.5424 3.00367 24.5424C3.41167 24.5424 3.61594 24.8105 3.61594 25.287V26.8656H4.2282V25.287C4.2282 24.7808 4.51959 24.5424 4.89864 24.5424C5.30691 24.5424 5.51091 24.8105 5.51091 25.287V26.8656H6.18161ZM15.2489 24.0063H14.2577V23.1426H13.6454V24.0063H13.0914V24.5721H13.6453V25.8828C13.6453 26.5381 13.9077 26.9252 14.6075 26.9252C14.8699 26.9252 15.1613 26.8359 15.3656 26.7168L15.1905 26.1806C15.0156 26.2997 14.8116 26.3296 14.6658 26.3296C14.3743 26.3296 14.2577 26.1509 14.2577 25.8529V24.5721H15.2489V24.0063ZM20.4386 23.9466C20.0888 23.9466 19.8556 24.1255 19.7098 24.3637V24.0063H19.0975V26.8656H19.7098V25.2573C19.7098 24.7808 19.9138 24.5127 20.2928 24.5127C20.4094 24.5127 20.5552 24.5425 20.6719 24.5723L20.8468 23.9766C20.7302 23.9468 20.5552 23.9468 20.4386 23.9468V23.9466ZM12.5958 24.2446C12.3041 24.0361 11.896 23.9468 11.4586 23.9468C10.759 23.9468 10.2926 24.3042 10.2926 24.8701C10.2926 25.3467 10.6424 25.6147 11.2547 25.7041L11.5462 25.7339C11.8669 25.7934 12.0418 25.8828 12.0418 26.0317C12.0418 26.2402 11.8086 26.3891 11.4003 26.3891C10.9922 26.3891 10.6715 26.2402 10.4673 26.0913L10.1758 26.5678C10.4966 26.8061 10.9339 26.9252 11.3711 26.9252C12.1875 26.9252 12.6541 26.5381 12.6541 26.0019C12.6541 25.4955 12.275 25.2274 11.6919 25.1382L11.4003 25.1083C11.1379 25.0785 10.9339 25.019 10.9339 24.8404C10.9339 24.6318 11.1379 24.5127 11.4586 24.5127C11.8086 24.5127 12.1584 24.6615 12.3334 24.7509L12.5958 24.2446ZM28.8647 23.9468C28.5147 23.9468 28.2815 24.1255 28.1357 24.3637V24.0063H27.5234V26.8656H28.1357V25.2573C28.1357 24.7808 28.3398 24.5127 28.7187 24.5127C28.8354 24.5127 28.9813 24.5425 29.0979 24.5723L29.2728 23.9766C29.1562 23.9468 28.9813 23.9468 28.8647 23.9468ZM21.0509 25.436C21.0509 26.2997 21.6339 26.9252 22.5379 26.9252C22.946 26.9252 23.2375 26.8359 23.5291 26.5977L23.2375 26.0913C23.0043 26.27 22.7711 26.3593 22.5087 26.3593C22.013 26.3593 21.6632 26.0019 21.6632 25.436C21.6632 24.8999 22.013 24.5424 22.5087 24.5127C22.7711 24.5127 23.0043 24.602 23.2375 24.7808L23.5291 24.2744C23.2375 24.0361 22.946 23.9468 22.5379 23.9468C21.6339 23.9468 21.0509 24.5723 21.0509 25.436ZM26.7071 25.436V24.0063H26.0949V24.3637C25.8907 24.0958 25.5992 23.9468 25.2202 23.9468C24.433 23.9468 23.8207 24.5723 23.8207 25.436C23.8207 26.2997 24.433 26.9252 25.2202 26.9252C25.6283 26.9252 25.9199 26.7764 26.0949 26.5083V26.8656H26.7071V25.436ZM24.4621 25.436C24.4621 24.9296 24.7828 24.5127 25.3075 24.5127C25.8032 24.5127 26.1532 24.8999 26.1532 25.436C26.1532 25.9423 25.8032 26.3593 25.3075 26.3593C24.7828 26.3294 24.4621 25.9423 24.4621 25.436ZM17.1441 23.9468C16.3277 23.9468 15.7445 24.5424 15.7445 25.436C15.7445 26.3296 16.3276 26.9252 17.1732 26.9252C17.5813 26.9252 17.9896 26.8061 18.3103 26.5381L18.0187 26.0913C17.7854 26.27 17.4939 26.3891 17.2024 26.3891C16.8233 26.3891 16.4443 26.2104 16.3568 25.7039H18.4269V25.4658C18.4561 24.5424 17.9313 23.9468 17.144 23.9468H17.1441ZM17.1441 24.4828C17.523 24.4828 17.7856 24.7212 17.8437 25.168H16.386C16.4443 24.7808 16.7067 24.4828 17.1441 24.4828ZM32.3341 25.436V22.8745H31.7219V24.3637C31.5177 24.0958 31.2262 23.9468 30.8472 23.9468C30.06 23.9468 29.4477 24.5723 29.4477 25.436C29.4477 26.2997 30.06 26.9252 30.8472 26.9252C31.2554 26.9252 31.5469 26.7764 31.7219 26.5083V26.8656H32.3341V25.436ZM30.0892 25.436C30.0892 24.9296 30.4098 24.5127 30.9347 24.5127C31.4303 24.5127 31.7802 24.8999 31.7802 25.436C31.7802 25.9423 31.4303 26.3593 30.9347 26.3593C30.4098 26.3294 30.0892 25.9423 30.0892 25.436ZM9.62185 25.436V24.0063H9.00959V24.3637C8.80545 24.0958 8.51393 23.9468 8.13488 23.9468C7.3477 23.9468 6.73544 24.5723 6.73544 25.436C6.73544 26.2997 7.3477 26.9252 8.13488 26.9252C8.54315 26.9252 8.83467 26.7764 9.00959 26.5083V26.8656H9.62185V25.436ZM7.3477 25.436C7.3477 24.9296 7.66845 24.5127 8.19319 24.5127C8.68884 24.5127 9.03881 24.8999 9.03881 25.436C9.03881 25.9423 8.68884 26.3593 8.19319 26.3593C7.66845 26.3294 7.3477 25.9423 7.3477 25.436Z" fill="black"/>
<path d="M12.3906 2.29346H21.5746V19.1516H12.3906V2.29346Z" fill="#FF5F00"/>
<path d="M12.9743 10.7225C12.9743 7.29733 14.5487 4.25922 16.9685 2.29337C15.1902 0.863729 12.9452 0 10.4962 0C4.69399 0 0 4.79528 0 10.7225C0 16.6496 4.69399 21.4451 10.496 21.4451C12.9451 21.4451 15.19 20.5813 16.9685 19.1515C14.5487 17.2156 12.9743 14.1477 12.9743 10.7225Z" fill="#EB001B"/>
<path d="M33.9666 10.7225C33.9666 16.6496 29.2726 21.4451 23.4705 21.4451C21.0215 21.4451 18.7765 20.5813 16.998 19.1515C19.4471 17.1858 20.9924 14.1477 20.9924 10.7225C20.9924 7.29733 19.4179 4.25922 16.998 2.29337C18.7764 0.863729 21.0215 0 23.4705 0C29.2726 0 33.9667 4.82513 33.9667 10.7225H33.9666Z" fill="#F79E1B"/>
</svg>
