<svg width="30" height="30" viewBox="0 0 30 30" fill="none" xmlns="http://www.w3.org/2000/svg">
<path d="M28.6861 24.5436L28.6862 24.5438C29.42 26.1801 29.8105 27.9128 29.8499 29.6943L29.85 29.6949C29.8505 29.7139 29.847 29.733 29.8394 29.7511C29.8319 29.7693 29.8203 29.7864 29.8049 29.8013L29.9093 29.909L29.8049 29.8013C29.7896 29.8162 29.7707 29.8285 29.7493 29.837C29.7279 29.8455 29.7045 29.85 29.6808 29.85H29.6808H27.2872C27.1847 29.85 27.1198 29.7787 27.118 29.7024L27.118 29.7019C27.037 26.7512 25.7825 23.989 23.5684 21.8972C21.2777 19.7332 18.2366 18.5435 15 18.5435C11.7634 18.5435 8.72227 19.7332 6.43162 21.8972C4.21747 23.989 2.96297 26.7512 2.88205 29.7019L2.88204 29.7023C2.88022 29.7762 2.81401 29.85 2.71285 29.85H0.319247H0.319206C0.295459 29.85 0.272145 29.8455 0.250716 29.837C0.229281 29.8285 0.210432 29.8162 0.195054 29.8013C0.179694 29.7864 0.168132 29.7693 0.160586 29.7511C0.153048 29.733 0.149545 29.7139 0.15005 29.6949L0.150068 29.694C0.186282 27.9243 0.581227 26.1774 1.31377 24.5477L1.31385 24.5475C2.05961 22.8826 3.13982 21.3694 4.49525 20.0916L4.49553 20.0913C5.85781 18.8006 7.44529 17.7895 9.21515 17.0841L9.21526 17.0843L9.22358 17.0804C9.22366 17.0804 9.22418 17.0801 9.22533 17.0797L9.23364 17.0767L9.23489 17.0762C9.24233 17.0736 9.25655 17.0686 9.27155 17.0615L9.50812 16.9498L9.29216 16.8021C6.84398 15.1277 5.25645 12.4097 5.25645 9.34673C5.25645 4.27418 9.6093 0.15 15 0.15C20.3907 0.15 24.7436 4.27418 24.7436 9.34673C24.7436 12.4097 23.156 15.1277 20.708 16.7982L20.4916 16.9459L20.7284 17.0577C20.7435 17.0648 20.7577 17.0699 20.7651 17.0725L20.7664 17.0729L20.7747 17.0759C20.7763 17.0766 20.7767 17.0767 20.7763 17.0766L20.7762 17.0768L20.7847 17.0802C22.5492 17.7857 24.1519 18.807 25.5045 20.0876L25.5048 20.0879C26.8615 21.3647 27.9418 22.8781 28.6861 24.5436ZM10.046 14.0387C11.3712 15.2906 13.1317 15.9791 15 15.9791C16.8683 15.9791 18.6288 15.2906 19.954 14.0387C21.2795 12.7865 22.0117 11.1193 22.0117 9.34673C22.0117 7.57417 21.2795 5.90701 19.954 4.65478C18.6288 3.40282 16.8683 2.71432 15 2.71432C13.1317 2.71432 11.3712 3.40282 10.046 4.65478C8.72047 5.90701 7.98834 7.57417 7.98834 9.34673C7.98834 11.1193 8.72047 12.7865 10.046 14.0387Z" fill="black" stroke="white" stroke-width="0.3"/>
</svg>
