<svg width="56" height="25" viewBox="0 0 56 25" fill="none" xmlns="http://www.w3.org/2000/svg">
<path d="M21.2618 0.320175L13.93 17.8548H9.14681L5.53875 3.86053C5.32 3.00066 5.12991 2.68421 4.46425 2.32061C3.37619 1.72807 1.57937 1.1739 0 0.829167L0.106531 0.320175H7.80741C8.78741 0.320175 9.66984 0.974342 9.89428 2.10702L11.8007 12.2546L16.5073 0.320175H21.2618ZM27.7281 0.320175L23.9868 17.8548H19.4613L23.203 0.320175H27.7283H27.7281ZM40.0035 12.1298C40.0223 7.50285 33.6217 7.24605 33.6634 5.17873C33.6787 4.55022 34.2759 3.88114 35.5832 3.71009C36.2307 3.6261 38.0196 3.55921 40.0459 4.49518L40.8387 0.774561C39.7499 0.379825 38.3488 0 36.6061 0C32.1326 0 28.9859 2.38202 28.9608 5.79561C28.9314 8.32061 31.2084 9.72785 32.9208 10.5689C34.6846 11.4276 35.2761 11.9796 35.268 12.7471C35.2553 13.9237 33.8592 14.4445 32.5614 14.4638C30.2855 14.5 28.9662 13.8471 27.9138 13.3557L27.0924 17.1996C28.1512 17.686 30.1024 18.1086 32.1234 18.13C36.8791 18.13 39.9895 15.7754 40.0035 12.13V12.1298ZM51.816 17.8548H56L52.3447 0.320175H48.4844C47.6138 0.320175 46.8821 0.826754 46.5574 1.60548L39.7674 17.8548H44.5193L45.4619 15.2355H51.2676L51.8162 17.8548H51.816ZM46.765 11.6423L49.1477 5.05746L50.5164 11.6423H46.7648H46.765ZM33.5197 22.6814H31.6809V24.3969H33.7376V24.9127H31.0614V20.1535H33.6322V20.6693H31.6809V22.173H33.5195V22.6818L33.5197 22.6814ZM34.6876 19.8993H35.3071V24.9125H34.6876V19.8993ZM36.8703 23.3167C36.8843 24.1572 37.4128 24.5031 38.0393 24.5031C38.4834 24.5031 38.7579 24.4254 38.9837 24.3268L39.0961 24.7717C38.8778 24.8704 38.4976 24.9904 37.9549 24.9904C36.9058 24.9904 36.279 24.2914 36.279 23.2603C36.279 22.2296 36.8843 21.4243 37.8777 21.4243C38.9977 21.4243 39.2864 22.3991 39.2864 23.0274C39.2864 23.1544 39.2792 23.2461 39.265 23.3169H36.8703V23.3167ZM38.6875 22.8719C38.6947 22.4838 38.5256 21.8693 37.8282 21.8693C37.1943 21.8693 36.9265 22.4412 36.8771 22.8719H38.6875ZM42.6587 24.7925C42.4968 24.8704 42.1374 24.9906 41.6797 24.9906C40.6514 24.9906 39.9823 24.2914 39.9823 23.2463C39.9823 22.1941 40.7004 21.4246 41.8134 21.4246C42.1796 21.4246 42.5036 21.516 42.6727 21.6081L42.5322 22.0811C42.3837 22.0035 42.1514 21.9184 41.8134 21.9184C41.0314 21.9184 40.6092 22.5046 40.6092 23.2112C40.6092 24.0018 41.1162 24.489 41.7924 24.489C42.1446 24.489 42.3769 24.4044 42.553 24.3268L42.6587 24.7925ZM44.3973 20.6759V21.495H45.2845V21.9678H44.3973V23.811C44.3973 24.2351 44.5172 24.4748 44.8621 24.4748C45.031 24.4748 45.1299 24.461 45.2215 24.4322L45.2498 24.9059C45.1299 24.948 44.9398 24.9904 44.7002 24.9904C44.4113 24.9904 44.1787 24.8914 44.0311 24.7294C43.862 24.5384 43.7916 24.2351 43.7916 23.8325V21.9678H43.2631V21.495H43.7916V20.8596L44.3975 20.6761L44.3973 20.6759ZM46.1501 22.5614C46.1501 22.1588 46.1427 21.8129 46.1219 21.495H46.6644L46.6928 22.1726H46.7134C46.8687 21.714 47.2487 21.4243 47.6641 21.4243C47.7278 21.4243 47.7772 21.4316 47.8336 21.4384V22.0248C47.7702 22.0103 47.707 22.0103 47.6219 22.0103C47.1857 22.0103 46.8753 22.3351 46.7911 22.8015C46.7765 22.8973 46.7694 22.9941 46.7698 23.091V24.9129H46.1501V22.5614ZM51.6432 23.1754C51.6432 24.4395 50.7625 24.9904 49.9457 24.9904C49.0298 24.9904 48.3116 24.3123 48.3116 23.2322C48.3116 22.0952 49.0652 21.4246 50.0021 21.4246C50.981 21.4246 51.6432 22.1373 51.6432 23.1757V23.1754ZM48.9453 23.211C48.9453 23.9594 49.3679 24.5246 49.9737 24.5246C50.5656 24.5246 51.009 23.9662 51.009 23.1967C51.009 22.6178 50.7202 21.8901 49.9877 21.8901C49.2625 21.8901 48.9453 22.5684 48.9453 23.211ZM52.593 22.42C52.593 22.0601 52.5855 21.7774 52.5645 21.4952H53.114L53.1493 22.0601H53.1632C53.3323 21.7421 53.7267 21.4246 54.2903 21.4246C54.7619 21.4246 55.4947 21.707 55.4947 22.8787V24.9127H54.875V22.9425C54.875 22.3921 54.6707 21.9327 54.0862 21.9327C53.6845 21.9327 53.3673 22.2224 53.2551 22.5682C53.2267 22.6461 53.2127 22.7518 53.2127 22.8579V24.9127H52.593V22.42Z" fill="#1A1F71"/>
</svg>
